<?xml version="1.0" encoding="UTF-8" standalone="no"?>
<!-- Created with Inkscape (http://www.inkscape.org/) -->

<svg
   width="170.75363mm"
   height="170.75363mm"
   viewBox="0 0 170.75363 170.75363"
   version="1.1"
   id="svg5"
   sodipodi:docname="cat_man.svg"
   inkscape:version="1.1.1 (3bf5ae0d25, 2021-09-20, custom)"
   xmlns:inkscape="http://www.inkscape.org/namespaces/inkscape"
   xmlns:sodipodi="http://sodipodi.sourceforge.net/DTD/sodipodi-0.dtd"
   xmlns="http://www.w3.org/2000/svg"
   xmlns:svg="http://www.w3.org/2000/svg">
  <sodipodi:namedview
     id="namedview7"
     pagecolor="#ffffff"
     bordercolor="#666666"
     borderopacity="1.0"
     inkscape:pageshadow="2"
     inkscape:pageopacity="0.0"
     inkscape:pagecheckerboard="0"
     inkscape:document-units="mm"
     showgrid="false"
     showguides="true"
     inkscape:guide-bbox="true"
     inkscape:snap-bbox="true"
     inkscape:bbox-paths="true"
     inkscape:bbox-nodes="true"
     inkscape:snap-bbox-edge-midpoints="true"
     inkscape:snap-bbox-midpoints="true"
     inkscape:zoom="0.58618126"
     inkscape:cx="-28.14829"
     inkscape:cy="354.83905"
     inkscape:window-width="1600"
     inkscape:window-height="835"
     inkscape:window-x="0"
     inkscape:window-y="0"
     inkscape:window-maximized="1"
     inkscape:current-layer="layer3" />
  <defs
     id="defs2" />
  <g
     inkscape:groupmode="layer"
     id="layer3"
     inkscape:label="Calque 0"
     style="display:inline"
     transform="translate(-25.566025,-13.168991)">
    <rect
       style="display:inline;fill:#ffff00;fill-opacity:1;fill-rule:nonzero;stroke:none;stroke-width:2.2902;stroke-linecap:round;stroke-linejoin:round;stroke-miterlimit:4;stroke-dasharray:none;stroke-opacity:1;paint-order:normal"
       id="rect5304"
       width="170.75363"
       height="170.75363"
       x="25.566025"
       y="13.168991" />
  </g>
  <g
     inkscape:label="Calque 1"
     inkscape:groupmode="layer"
     id="layer1"
     style="display:inline"
     transform="translate(-25.566025,-13.168991)">
    <ellipse
       style="fill:none;fill-rule:evenodd;stroke:#000000;stroke-width:2.565;stroke-miterlimit:4;stroke-dasharray:none;stroke-opacity:1"
       id="path31"
       cx="110.94284"
       cy="98.545807"
       rx="55.784225"
       ry="55.784" />
    <ellipse
       style="font-variation-settings:normal;opacity:1;vector-effect:none;fill:#000000;fill-opacity:1;fill-rule:evenodd;stroke:#000000;stroke-width:3.77191;stroke-linecap:butt;stroke-linejoin:miter;stroke-miterlimit:4;stroke-dasharray:none;stroke-dashoffset:0;stroke-opacity:1;-inkscape-stroke:none;stop-color:#000000;stop-opacity:1"
       id="path1020"
       cx="80.813614"
       cy="93.39502"
       rx="7.1571522"
       ry="16.641552" />
    <ellipse
       style="font-variation-settings:normal;vector-effect:none;fill:#000000;fill-opacity:1;fill-rule:evenodd;stroke:#000000;stroke-width:3.77191;stroke-linecap:butt;stroke-linejoin:miter;stroke-miterlimit:4;stroke-dasharray:none;stroke-dashoffset:0;stroke-opacity:1;-inkscape-stroke:none;stop-color:#000000"
       id="path1020-6"
       cx="141.04633"
       cy="93.39502"
       rx="7.1571522"
       ry="16.641552" />
    <ellipse
       style="font-variation-settings:normal;opacity:1;vector-effect:none;fill:#ffffff;fill-opacity:1;fill-rule:evenodd;stroke:none;stroke-width:2.565;stroke-linecap:butt;stroke-linejoin:miter;stroke-miterlimit:4;stroke-dasharray:none;stroke-dashoffset:0;stroke-opacity:1;-inkscape-stroke:none;stop-color:#000000;stop-opacity:1"
       id="path2760"
       cx="87.598946"
       cy="81.1875"
       rx="7.1244178"
       ry="12.207521" />
    <ellipse
       style="font-variation-settings:normal;vector-effect:none;fill:#ffffff;fill-opacity:1;fill-rule:evenodd;stroke:none;stroke-width:2.565;stroke-linecap:butt;stroke-linejoin:miter;stroke-miterlimit:4;stroke-dasharray:none;stroke-dashoffset:0;stroke-opacity:1;-inkscape-stroke:none;stop-color:#000000"
       id="path2760-7"
       cx="148.17075"
       cy="81.1875"
       rx="7.1244178"
       ry="12.207521" />
    <path
       id="path6052"
       style="display:inline;fill:#000000;fill-opacity:1;fill-rule:nonzero;stroke:#000000;stroke-width:4.55922;stroke-linecap:round;stroke-linejoin:round;stroke-miterlimit:4;stroke-dasharray:none;stroke-opacity:1;paint-order:normal"
       d="m 246.13867,119.39062 c -4.18435,0.0759 -7.63084,2.3411 -10.32226,6.13477 -2.87086,4.04659 -4.96588,9.83815 -6.4961,16.80859 -3.06043,13.94089 -3.83146,32.60509 -3.51953,51.32618 0.62388,37.44217 5.61719,75.08789 5.61719,75.08789 l 0.16211,1.21093 0.82031,-0.9082 c 0,0 14.84329,-16.45807 34.85547,-35.70703 20.01218,-19.24896 45.20691,-41.28601 65.77344,-52.39648 l -0.27344,-0.49415 0.42773,-0.37695 c 0,0 -12.7344,-14.69704 -29.85156,-29.62305 -17.11715,-14.926 -38.5742,-30.14091 -56.3457,-31.04882 -0.28551,-0.0146 -0.5687,-0.0187 -0.84766,-0.0137 z m 0.0176,1.13086 c 0.2537,-0.004 0.51105,3.7e-4 0.77148,0.0137 17.16922,0.87715 38.60874,15.90841 55.65821,30.77539 16.59705,14.47248 28.64874,28.27857 29.29883,29.02539 -20.66325,11.31832 -45.55419,33.09855 -65.41016,52.19726 -19.55508,18.80929 -33.36769,34.11173 -34.06836,34.88672 -0.2389,-1.82142 -4.86981,-37.36108 -5.47656,-73.77539 -0.31121,-18.67715 0.47445,-37.29526 3.49804,-51.06836 1.5118,-6.88654 3.58721,-12.56093 6.3125,-16.40234 2.55497,-3.60133 5.61058,-5.59273 9.41602,-5.65235 z m -0.29687,2.9004 c -1.19684,0.0651 -2.22216,0.2908 -3.04297,0.68945 -4.6157,2.2417 -9.18158,13.2555 -11.31055,27.27929 -2.27349,14.97566 -1.82413,67.48455 0.79687,93.19922 0.86303,8.46719 1.92189,14.98223 2.35352,14.47657 0.43162,-0.50564 3.81244,-5.28065 7.51367,-10.61133 18.94732,-27.28871 47.38005,-52.52868 74.88672,-66.47852 7.95181,-4.03271 8.18231,-4.27701 6.50977,-6.83008 -2.63187,-4.01744 -26.79877,-25.70487 -37.45118,-33.60937 -15.02536,-11.1494 -31.87804,-18.57083 -40.25585,-18.11523 z"
       transform="scale(0.26458333)" />
    <path
       id="path6052-2"
       style="display:inline;fill:#000000;fill-opacity:1;fill-rule:nonzero;stroke:#000000;stroke-width:1.20629;stroke-linecap:round;stroke-linejoin:round;stroke-miterlimit:4;stroke-dasharray:none;stroke-opacity:1;paint-order:normal"
       d="m 155.99919,31.588732 c 1.1071,0.02008 2.01899,0.619416 2.73109,1.623158 0.75959,1.07066 1.31389,2.60301 1.71876,4.447272 0.80974,3.688527 1.01374,8.626764 0.93121,13.580052 -0.16507,9.906574 -1.48621,19.867004 -1.48621,19.867004 l -0.0429,0.320392 -0.21704,-0.240295 c 0,0 -3.92729,-4.354531 -9.22218,-9.447485 -5.29489,-5.092954 -11.96099,-10.92359 -17.40255,-13.863235 l 0.0724,-0.130744 -0.11317,-0.09973 c 0,0 3.36931,-3.888592 7.89822,-7.837766 4.52891,-3.94917 10.20609,-7.974782 14.90813,-8.215 0.0755,-0.0039 0.15047,-0.0049 0.22428,-0.0036 z m -0.005,0.299207 c -0.0671,-0.0011 -0.13522,9.7e-5 -0.20412,0.0036 -4.54269,0.23208 -10.21523,4.2091 -14.72624,8.142655 -4.3913,3.829177 -7.57998,7.482039 -7.75198,7.679635 5.46715,2.994639 12.05288,8.757324 17.30644,13.810525 5.17394,4.976624 8.82853,9.025395 9.01392,9.230444 0.0632,-0.481917 1.28847,-9.885119 1.449,-19.519738 0.0823,-4.941663 -0.12553,-9.867704 -0.92552,-13.511837 -0.4,-1.822064 -0.94912,-3.323413 -1.67018,-4.339786 -0.676,-0.952851 -1.48447,-1.479743 -2.49132,-1.495517 z m 0.0785,0.767397 c 0.31666,0.01722 0.58794,0.07694 0.80511,0.182417 1.22124,0.593116 2.4293,3.507184 2.99259,7.217645 0.60153,3.96231 0.48263,17.855287 -0.21084,24.65896 -0.22834,2.240278 -0.5085,3.964049 -0.6227,3.830259 -0.1142,-0.133783 -1.00871,-1.397172 -1.98799,-2.807581 -5.01315,-7.220137 -12.53598,-13.898213 -19.81378,-17.589108 -2.10392,-1.066988 -2.16491,-1.131625 -1.72238,-1.807125 0.69635,-1.062948 7.09051,-6.80108 9.90896,-8.892479 3.97546,-2.949945 8.4344,-4.913532 10.65103,-4.792988 z" />
    <path
       id="path2770"
       style="fill:#000000;stroke-width:0.2196;stroke-linecap:round;stroke-linejoin:round;stop-color:#000000"
       d="M 322.8457 353.125 C 317.86557 353.125 313.79102 353.17838 313.79102 353.24414 C 313.79102 353.39759 319.38782 364.37265 321.14844 367.67188 L 322.49219 370.18945 L 323.01953 369.30664 C 323.83175 367.95005 331.90039 353.33913 331.90039 353.22461 C 331.90039 353.16716 327.82572 353.125 322.8457 353.125 z "
       transform="matrix(0.26458333,0,0,0.26458333,25.566025,13.168991)" />
  </g>
  <g
     inkscape:groupmode="layer"
     id="layer2"
     inkscape:label="Calque 2"
     style="display:inline"
     transform="translate(-25.566025,-13.168991)">
    <circle
       style="font-variation-settings:normal;display:inline;opacity:1;vector-effect:none;fill:none;fill-opacity:1;fill-rule:evenodd;stroke:#000000;stroke-width:2.565;stroke-linecap:butt;stroke-linejoin:miter;stroke-miterlimit:4;stroke-dasharray:none;stroke-dashoffset:0;stroke-opacity:1;-inkscape-stroke:none;stop-color:#000000;stop-opacity:1"
       id="path892"
       cx="80.474525"
       cy="93.39502"
       r="17.245008" />
    <circle
       style="font-variation-settings:normal;display:inline;vector-effect:none;fill:none;fill-opacity:1;fill-rule:evenodd;stroke:#000000;stroke-width:2.565;stroke-linecap:butt;stroke-linejoin:miter;stroke-miterlimit:4;stroke-dasharray:none;stroke-dashoffset:0;stroke-opacity:1;-inkscape-stroke:none;stop-color:#000000"
       id="path892-3"
       cx="141.04633"
       cy="93.39502"
       r="17.245008" />
    <path
       style="fill:#b3b3b3;fill-opacity:1;fill-rule:nonzero;stroke:#000000;stroke-width:9.11844;stroke-linecap:round;stroke-linejoin:round;stroke-miterlimit:4;stroke-dasharray:none;stroke-opacity:1;paint-order:normal"
       d="M 404.29196,577.06374 C 327.68084,571.97339 258.64108,521.68143 229.25964,449.5616 213.83153,411.69166 210.14542,370.86912 218.4616,329.97666 c 13.01065,-63.97613 59.97129,-120.7964 121.11009,-146.53778 66.99977,-28.20903 143.88162,-18.96475 202.09141,24.2995 14.23809,10.58241 34.14707,30.81949 44.30235,45.03246 9.83769,13.76845 23.6598,41.02054 28.62871,56.44524 7.63113,23.68877 8.97873,33.1331 8.97873,62.92554 0,23.70917 -0.34677,28.74341 -2.74193,39.80769 -6.04114,27.9065 -16.30388,52.34919 -31.73144,75.57449 -12.01093,18.08175 -36.47402,42.53618 -54.5886,54.56928 -40.31714,26.78172 -82.5933,38.1351 -130.21896,34.97066 z M 321.47728,421.43639 c 10.67229,-2.31508 22.69617,-9.2187 31.94946,-18.34407 13.91804,-13.72561 21.0701,-30.62878 21.10964,-49.89045 0.0245,-11.93989 -1.80791,-19.79974 -7.25553,-31.12144 -7.99579,-16.61749 -20.15703,-27.82915 -37.96266,-34.99842 -11.08864,-4.46474 -30.696,-5.57282 -42.82343,-2.4201 -52.36889,13.61413 -70.60219,79.48099 -32.57569,117.67799 18.05153,18.13246 41.47718,24.75413 67.55821,19.09649 z m 110.26143,-16.2641 0.0358,-4.53473 c -8.1578,-0.10696 -16.31409,-0.003 -24.47126,0.0874 l -0.0358,4.53473 c 14.09283,23.71323 9.77327,21.97429 24.47126,-0.0874 z m 118.93438,16.19441 c 17.97769,-4.14185 36.76885,-19.15782 45.06548,-36.01174 20.21134,-41.05758 -1.2509,-89.31615 -44.73291,-100.58346 -9.30335,-2.41074 -26.70231,-2.43594 -35.85514,-0.0519 -19.23915,5.01116 -36.62657,19.23858 -45.11024,36.91185 -10.04635,20.9287 -10.02224,41.53882 0.0732,62.57314 9.96295,20.75822 29.35614,34.9627 52.65799,38.56914 7.43783,1.15115 19.42078,0.5469 27.9016,-1.407 z"
       id="path3834"
       sodipodi:nodetypes="sssssssssssssssssssscccccsssssssss"
       transform="scale(0.26458333)" />
    <path
       style="fill:#000000;fill-opacity:1;stroke:none;stroke-width:0.264583px;stroke-linecap:butt;stroke-linejoin:miter;stroke-opacity:1"
       d="m 84.327557,50.818052 c 0,0 12.035388,-7.899821 26.615283,-7.256248 14.57989,0.64357 27.55665,7.345045 27.55665,7.345045 0,0 -12.88324,7.217336 -27.55665,7.149896 -14.67341,-0.06744 -26.603435,-7.149896 -26.603435,-7.149896"
       id="path5101" />
    <path
       style="display:inline;fill:#ffffff;stroke:none;stroke-width:0.265;stroke-linecap:butt;stroke-linejoin:miter;stroke-miterlimit:4;stroke-dasharray:none;stroke-opacity:1"
       d="m 99.929113,124.07775 4.485937,7.16084 0.25266,-7.25091 z"
       id="path6499" />
    <path
       style="display:inline;fill:#ffffff;stroke:none;stroke-width:0.265;stroke-linecap:butt;stroke-linejoin:miter;stroke-miterlimit:4;stroke-dasharray:none;stroke-opacity:1"
       d="m 121.3485,124.07775 -4.48594,7.16084 -0.25266,-7.25091 z"
       id="path6499-9" />
    <path
       style="fill:#b3b3b3;fill-opacity:1;stroke:none;stroke-width:0.264583px;stroke-linecap:butt;stroke-linejoin:miter;stroke-opacity:1"
       d="m 64.068568,65.471627 c 0,0 -2.491841,-27.434982 1.140087,-29.301205 3.63193,-1.866222 15.034859,13.970587 15.034859,13.970587 0,0 -9.115249,4.786088 -16.174946,15.330618 z"
       id="path6829"
       sodipodi:nodetypes="cscc" />
    <path
       style="display:inline;fill:#b3b3b3;fill-opacity:1;stroke:none;stroke-width:0.264583px;stroke-linecap:butt;stroke-linejoin:miter;stroke-opacity:1"
       d="m 157.40524,65.63651 c 0,0 2.49185,-27.434982 -1.14008,-29.301205 -3.63193,-1.866222 -15.03486,13.970587 -15.03486,13.970587 0,0 9.11525,4.786088 16.17494,15.330618 z"
       id="path6829-1"
       sodipodi:nodetypes="cscc" />
    <path
       style="fill:#000000;fill-opacity:1;stroke:none;stroke-width:0.264583px;stroke-linecap:butt;stroke-linejoin:miter;stroke-opacity:1"
       d="m 80.476015,67.175357 c 0,0 19.926845,9.978556 21.536785,5.998206 1.60991,-3.980345 -21.536785,-5.998206 -21.536785,-5.998206 z"
       id="path7051" />
    <path
       style="display:inline;fill:#000000;fill-opacity:1;stroke:none;stroke-width:0.264583px;stroke-linecap:butt;stroke-linejoin:miter;stroke-opacity:1"
       d="m 141.11665,67.175351 c 0,0 -19.92684,9.978556 -21.53678,5.998206 -1.60991,-3.980345 21.53678,-5.998206 21.53678,-5.998206 z"
       id="path7051-7" />
  </g>
</svg>
